PathFileType   4   (X/Y/Z)
DataRate	CameraRate	NumFrames	NumMarkers	Units	OrigDataRate	OrigDataStartFrame	OrigNumFrames
120.0	120.0	12	37	mm	120.0	43	168
Frame#	Time	midhip	hip_r	hip_l	knee_r	knee_l	ankle_r	ankle_l	midasis	asis_r	asis_l	psis_r	psis_l	epicondLat_r	epicondLat_l	epicondMed_r	epicondMed_l	malleolusLat_r	malleolusLat_l	malleolusMedv_r	malleolusMedv_l	neck	subclavicle_r	subclavicle_l	sternalnotch	xyphoidprocess	thighwand_r	thighwand_l	upperleg1_r	upperleg1_l	upperleg2_r	upperleg2_l	shankwand_r	shankwand_l	lowerleg1_r	lowerleg1_l	toe_r	toe_l
 	 	X1	Y1	Z1	X2	Y2	Z2	X3	Y3	Z3	X4	Y4	Z4	X5	Y5	Z5	X6	Y6	Z6	X7	Y7	Z7	X8	Y8	Z8	X9	Y9	Z9	X10	Y10	Z10	X11	Y11	Z11	X12	Y12	Z12	X13	Y13	Z13	X14	Y14	Z14	X15	Y15	Z15	X16	Y16	Z16	X17	Y17	Z17	X18	Y18	Z18	X19	Y19	Z19	X20	Y20	Z20	X21	Y21	Z21	X22	Y22	Z22	X23	Y23	Z23	X24	Y24	Z24	X25	Y25	Z25	X26	Y26	Z26	X27	Y27	Z27	X28	Y28	Z28	X29	Y29	Z29	X30	Y30	Z30	X31	Y31	Z31	X32	Y32	Z32	X33	Y33	Z33	X34	Y34	Z34	X35	Y35	Z35	X36	Y36	Z36	X37	Y37	Z37

	43	0.63333	309.174	822.501	-317.838	297.100	799.912	-242.590	287.151	802.353	-394.372	473.326	457.184	-227.253	251.179	428.202	-366.229	479.491	85.337	-224.323	185.003	68.835	-330.919	381.192	876.706	-320.057	385.050	874.626	-201.830	377.334	878.787	-438.284	186.468	931.703	-275.820	181.452	929.647	-331.355	477.871	462.099	-169.641	259.697	423.085	-423.371	469.940	455.120	-286.073	266.532	444.243	-301.141	466.227	85.415	-186.586	171.951	67.525	-368.707	488.974	93.335	-258.088	196.068	76.981	-306.509	261.484	1376.930	-314.331	383.867	1310.296	-262.129	384.995	1305.941	-367.833	380.246	1305.345	-314.460	417.747	1233.960	-314.863	550.091	649.237	-254.365	313.006	547.972	-515.729	473.375	666.520	-192.230	255.267	605.082	-464.986	502.656	582.393	-193.120	256.900	518.706	-444.416	458.357	166.493	-116.775	298.989	177.743	-334.127	459.620	173.159	-159.705	257.501	183.469	-343.310	575.321	63.970	-196.564	289.461	42.684	-363.985
	44	0.64167	315.407	823.905	-317.888	301.376	799.250	-242.328	291.365	801.792	-394.104	476.683	456.033	-228.165	253.506	427.939	-365.934	496.761	84.108	-223.627	185.078	68.943	-330.725	385.549	875.963	-319.788	389.454	873.809	-201.592	381.644	878.116	-437.983	191.215	931.141	-275.084	186.043	929.162	-330.691	481.518	460.879	-170.571	261.999	422.773	-423.076	472.031	452.547	-285.927	266.639	442.991	-302.001	483.533	83.854	-185.879	171.998	67.731	-368.507	506.397	92.584	-257.176	196.415	77.060	-306.395	266.391	1376.304	-313.668	388.486	1309.989	-261.309	389.418	1305.849	-367.817	385.182	1304.642	-314.127	422.362	1233.803	-314.682	553.516	646.928	-255.330	315.931	547.532	-515.383	477.246	664.336	-193.161	258.221	604.684	-464.601	505.818	580.072	-193.645	258.904	519.081	-444.891	472.651	164.992	-116.200	299.759	177.062	-333.942	473.833	171.791	-159.078	258.378	182.974	-343.018	593.450	65.999	-196.594	289.482	42.673	-363.844
	45	0.65000	319.269	822.380	-317.567	305.775	798.532	-241.999	295.644	801.199	-393.766	479.845	454.825	-229.016	255.888	427.689	-365.616	513.441	83.309	-222.881	185.133	69.056	-330.526	389.991	875.185	-319.472	393.988	872.940	-201.287	385.993	877.430	-437.656	196.013	930.519	-274.287	190.685	928.639	-329.986	485.003	459.612	-171.445	264.322	422.484	-422.763	472.711	450.275	-286.208	270.742	443.411	-301.215	500.217	82.736	-185.134	172.025	67.946	-368.300	523.491	92.156	-256.181	196.640	77.094	-306.259	271.933	1375.537	-312.731	393.343	1309.103	-261.282	393.810	1305.645	-367.792	390.098	1303.909	-313.789	426.847	1233.199	-315.274	556.848	644.426	-256.312	318.832	547.104	-515.019	481.036	662.172	-194.229	260.985	604.511	-464.307	508.243	577.759	-194.352	262.127	519.013	-444.327	486.334	163.836	-115.630	300.520	176.457	-333.759	487.606	170.460	-158.498	259.206	182.474	-342.841	610.840	68.343	-196.472	289.515	42.665	-363.697
	46	0.65833	322.710	820.295	-317.158	310.316	797.757	-241.606	299.980	800.575	-393.355	482.835	453.550	-229.795	258.332	427.418	-365.270	529.416	82.897	-222.116	185.214	69.161	-330.335	394.523	874.372	-319.124	398.681	872.015	-200.931	390.365	876.730	-437.317	200.863	929.844	-273.431	195.375	928.075	-329.237	488.352	458.289	-172.253	266.674	422.185	-422.428	473.932	448.488	-287.257	274.562	442.607	-301.378	516.190	82.017	-184.376	172.075	68.160	-368.102	539.649	91.858	-255.350	196.654	77.172	-305.990	277.238	1374.897	-312.349	398.155	1308.112	-261.043	398.677	1304.895	-367.453	394.992	1303.137	-313.452	431.457	1232.227	-315.132	560.069	641.756	-257.308	321.712	546.688	-514.644	484.674	660.002	-194.848	264.147	604.391	-463.703	511.020	575.512	-195.267	265.357	518.880	-444.125	499.392	162.990	-115.067	301.308	175.904	-333.593	500.725	169.024	-158.163	259.869	182.170	-342.547	627.397	70.951	-196.218	289.561	42.658	-363.585
	47	0.66667	327.148	819.268	-316.864	315.000	796.927	-241.163	304.401	799.921	-392.892	485.684	452.200	-230.487	260.854	427.101	-364.893	544.604	82.815	-221.368	185.363	69.258	-330.166	399.158	873.531	-318.746	403.521	871.040	-200.530	394.794	876.023	-436.963	205.761	929.121	-272.529	200.107	927.471	-328.432	491.592	456.906	-172.981	269.065	421.848	-422.068	474.988	446.368	-287.619	276.609	441.521	-301.490	531.389	81.638	-183.632	172.189	68.373	-367.924	554.666	92.186	-254.552	196.637	77.283	-305.796	282.069	1374.455	-312.396	402.732	1307.133	-260.430	404.117	1303.768	-366.825	399.902	1302.297	-313.098	436.237	1231.069	-314.140	563.189	638.948	-258.313	324.583	546.278	-514.260	488.499	657.753	-195.342	267.969	604.015	-462.968	514.004	573.067	-195.944	268.125	518.796	-443.894	511.824	162.404	-114.511	302.143	175.362	-333.447	513.021	168.300	-157.611	260.515	181.689	-342.442	643.046	73.751	-195.854	289.622	42.644	-363.531
	48	0.67500	332.449	819.122	-316.577	319.838	796.050	-240.670	308.922	799.245	-392.372	488.429	450.778	-231.067	263.475	426.725	-364.476	558.961	82.985	-220.657	185.601	69.354	-330.024	403.904	872.672	-318.335	408.516	870.028	-200.087	399.293	875.317	-436.582	210.704	928.355	-271.596	204.896	926.827	-327.549	494.760	455.468	-173.605	271.517	421.461	-421.674	477.149	443.359	-286.582	277.994	440.664	-301.180	545.777	81.525	-182.920	172.392	68.593	-367.772	568.673	93.058	-253.767	196.723	77.393	-305.767	286.757	1373.922	-311.982	408.069	1305.997	-260.406	409.411	1302.505	-366.162	404.892	1301.379	-312.716	441.412	1229.807	-313.703	566.240	636.036	-259.317	327.463	545.860	-513.864	492.179	655.516	-196.260	271.408	603.588	-462.389	517.329	570.654	-196.284	270.581	518.226	-443.444	523.625	162.013	-113.968	303.018	174.791	-333.315	524.637	168.200	-156.822	261.649	180.603	-342.172	657.736	76.654	-195.404	289.700	42.619	-363.541
	49	0.68333	337.741	818.916	-316.292	324.819	795.139	-240.121	313.555	798.553	-391.793	491.111	449.298	-231.508	266.205	426.298	-364.015	572.468	83.331	-219.987	185.924	69.459	-329.909	408.764	871.805	-317.873	413.650	868.991	-199.590	403.879	874.620	-436.156	215.693	927.561	-270.632	209.739	926.151	-326.571	497.898	453.992	-174.098	274.038	421.032	-421.242	479.486	440.483	-286.055	281.362	440.238	-300.557	559.327	81.598	-182.247	172.683	68.831	-367.648	581.334	93.923	-253.272	196.915	77.462	-305.686	291.658	1373.005	-311.063	413.259	1305.130	-260.270	414.192	1301.566	-365.865	409.931	1300.441	-312.302	446.430	1228.919	-313.558	569.274	633.063	-260.303	330.360	545.427	-513.459	495.590	653.206	-197.134	274.544	603.103	-462.113	520.547	568.166	-196.780	273.720	517.297	-442.899	534.774	161.740	-113.447	303.909	174.169	-333.185	535.490	167.721	-156.099	263.129	179.477	-341.590	671.442	79.556	-194.888	289.793	42.582	-363.600
	50	0.69167	342.740	818.343	-316.023	329.947	794.208	-239.491	318.286	797.842	-391.128	493.772	447.774	-231.787	269.037	425.836	-363.520	585.115	83.778	-219.356	186.306	69.586	-329.811	413.735	870.932	-317.356	418.932	867.947	-199.030	408.538	873.917	-435.681	220.733	926.751	-269.630	214.640	925.451	-325.481	501.046	452.490	-174.438	276.621	420.583	-420.782	480.280	438.550	-286.793	285.996	439.972	-299.984	572.013	81.779	-181.616	173.040	69.097	-367.544	592.946	94.736	-252.860	197.251	77.528	-305.506	296.829	1371.977	-310.172	417.876	1304.469	-259.406	419.170	1300.866	-365.429	414.933	1299.567	-311.823	451.298	1228.269	-312.782	572.356	630.074	-261.254	333.266	544.978	-513.050	499.168	650.968	-197.652	277.798	602.755	-461.534	523.246	565.639	-197.588	277.272	516.990	-442.299	545.231	161.505	-112.954	304.793	173.491	-333.045	545.467	167.400	-155.520	263.991	179.381	-341.467	684.149	82.353	-194.314	289.896	42.538	-363.678
	51	0.70000	347.665	817.434	-315.157	335.176	793.270	-238.778	323.089	797.109	-390.377	496.455	446.218	-231.889	271.941	425.364	-363.003	596.889	84.252	-218.764	186.707	69.742	-329.710	418.790	870.046	-316.780	424.323	866.902	-198.406	413.257	873.190	-435.154	225.828	925.938	-268.576	219.590	924.745	-324.285	504.242	450.974	-174.611	279.247	420.140	-420.303	483.409	436.180	-287.284	289.307	439.456	-299.732	583.801	81.988	-181.033	173.422	69.394	-367.438	604.104	95.276	-252.357	197.788	77.598	-305.316	302.153	1371.176	-309.035	423.331	1303.412	-259.115	424.202	1299.993	-364.818	419.954	1298.707	-311.314	456.445	1227.263	-312.581	575.547	627.115	-262.151	336.175	544.523	-512.640	502.335	648.537	-198.066	280.973	602.768	-460.472	526.596	563.317	-198.220	280.233	517.357	-441.712	554.943	161.232	-112.493	305.653	172.773	-332.879	554.771	167.341	-155.300	264.709	179.660	-341.536	695.849	84.942	-193.684	289.997	42.499	-363.743
	52	0.70833	352.688	816.706	-314.468	340.458	792.336	-237.990	327.912	796.361	-389.546	499.213	444.653	-231.817	274.877	424.904	-362.473	607.757	84.682	-218.206	187.085	69.922	-329.584	423.890	869.142	-316.156	429.784	865.854	-197.728	417.995	872.431	-434.583	230.985	925.138	-267.448	224.594	924.045	-322.989	507.525	449.464	-174.618	281.894	419.723	-419.813	487.681	433.163	-287.329	292.379	439.298	-298.957	594.641	82.153	-180.503	173.785	69.716	-367.308	615.211	96.012	-251.621	198.254	77.592	-305.119	307.085	1370.539	-307.973	428.899	1302.616	-259.032	428.732	1298.990	-364.493	424.943	1297.849	-310.733	461.406	1226.326	-312.545	578.890	624.228	-262.978	339.090	544.066	-512.220	505.141	645.861	-198.748	284.287	602.520	-459.756	529.980	560.920	-198.659	283.179	517.199	-440.958	563.850	160.863	-112.075	306.487	172.037	-332.685	563.797	167.314	-154.888	265.845	179.400	-341.527	706.532	87.227	-192.997	290.082	42.478	-363.773
	53	0.71667	357.786	816.023	-313.715	345.779	791.413	-237.131	332.730	795.610	-388.639	502.080	443.107	-231.583	277.808	424.467	-361.941	617.651	84.998	-217.690	187.411	70.117	-329.428	429.020	868.225	-315.493	435.311	864.802	-197.005	422.728	871.647	-433.981	236.217	924.364	-266.226	229.650	923.366	-321.617	510.926	447.986	-174.470	284.546	419.342	-419.320	488.926	431.138	-287.600	294.975	438.031	-299.307	604.462	82.203	-180.031	174.097	70.053	-367.147	625.920	96.826	-250.801	198.627	77.614	-304.946	311.968	1369.749	-307.077	433.277	1302.752	-257.515	433.203	1298.156	-363.834	430.052	1296.958	-310.104	465.937	1226.020	-310.773	582.397	621.446	-263.728	342.024	543.615	-511.782	509.081	643.704	-199.392	287.309	601.925	-459.321	532.870	558.570	-199.199	286.051	516.712	-440.969	571.900	160.357	-111.707	307.306	171.310	-332.467	572.390	167.084	-154.367	266.838	178.837	-341.661	716.184	89.121	-192.257	290.143	42.486	-363.763
	54	0.72500	362.633	815.070	-313.092	351.121	790.504	-236.222	337.534	794.872	-387.678	505.080	441.600	-231.211	280.713	424.053	-361.414	626.479	85.133	-217.232	187.678	70.318	-329.255	434.169	867.300	-314.804	440.887	863.746	-196.249	427.452	870.854	-433.359	241.532	923.620	-264.911	234.766	922.716	-320.194	514.460	446.558	-174.190	287.194	418.993	-418.828	490.037	429.782	-287.684	297.147	435.324	-301.158	613.183	82.080	-179.631	174.348	70.395	-366.968	635.063	96.958	-250.320	199.095	77.745	-304.802	317.591	1368.922	-306.063	439.286	1300.835	-257.049	438.418	1297.449	-363.191	435.233	1296.054	-309.435	471.282	1224.601	-311.299	586.061	618.795	-264.403	344.990	543.177	-511.320	513.714	642.069	-199.711	290.580	601.494	-458.656	536.320	556.643	-199.638	288.951	516.339	-441.667	579.057	159.688	-111.384	308.133	170.612	-332.242	579.794	166.340	-154.340	267.817	178.428	-341.604	724.778	90.552	-191.483	290.177	42.525	-363.723
